<?xml version="1.0" standalone="no"?><!DOCTYPE svg PUBLIC "-//W3C//DTD SVG 1.1//EN" "http://www.w3.org/Graphics/SVG/1.1/DTD/svg11.dtd"><svg t="1724581991790" class="icon" viewBox="0 0 1024 1024" version="1.1" xmlns="http://www.w3.org/2000/svg" p-id="1407" xmlns:xlink="http://www.w3.org/1999/xlink" width="200" height="200"><path d="M880.71 434.85l-339.8-243c-21.08-15.14-51.06-15.14-71.82 0l-339.8 243c-14.1 10.31-17.52 30.61-7.65 45.34 12.31 12.85 34 14.84 48.3 4.41l315-230.32a33.81 33.81 0 0 1 40.2 0L845 488.18c14.1 10.31 33.54 6.73 43.41-8 9.82-14.72 6.4-35.02-7.7-45.33z" fill="#1296db" p-id="1408"></path><path d="M524.52 315.15a33.49 33.49 0 0 0-39 0L233.4 496.09a50.44 50.44 0 0 0-21 40.94l-0.11 239.59a52.85 52.85 0 0 0 52.86 52.85H390a20.62 20.62 0 0 0 20.62-20.62V696.46A42.44 42.44 0 0 1 453.1 654h103.8a42.44 42.44 0 0 1 42.44 42.45v112.4A20.62 20.62 0 0 0 620 829.47h124.87a52.85 52.85 0 0 0 52.86-52.85V537.05a50.42 50.42 0 0 0-21-41z" fill="#1296db" p-id="1409"></path></svg>